{"title":"Lego Hero Factory (2010)[BRRip][Xvid-torentup][Lektor PL]","uid":12496295,"size":733616300,"categoryP":"video","categoryS":"movies","magnet":"?xt=urn:btih:55bdb4245dbe096a89ea9c6fa2ca870f533f769e&amp;dn=Lego+Hero+Factory+%282010%29%5BBRRip%5D%5BXvid-torentup%5D%5BLektor+PL%5D&amp;tr=udp%3A%2F%2Ftracker.leechers-paradise.org%3A6969&amp;tr=udp%3A%2F%2Fzer0day.ch%3A1337&amp;tr=udp%3A%2F%2Fopen.demonii.com%3A1337&amp;tr=udp%3A%2F%2Ftracker.coppersurfer.tk%3A6969&amp;tr=udp%3A%2F%2Fexodus.desync.com%3A6969","seeders":0,"leechers":2,"uploader":"torentup","files":5,"time":1443271390,"description":"=====================\r\nINFO\r\n================\r\n\r\n[font=Courier New][b]Gatunek: [/b]............ - Animacja, Dla dzieci, Przygodowy, Sci-Fi\r\n[b]Produkcja: [/b].......... - \r\n[b]Premiera: [/b]........... - \r\n[b]Czas trwania: [/b]....... -  n/n\r\n[b]Ocena Filmweb: [/b]...... - [color=Red][b]5,2[/b][/color] /10\r\n[b]Reżyseria: [/b].......... - \r\n[b]Scenariusz: [/b]......... - [/font]\r\n\r\n[size=2][b][i]..:: LINK ::..[/i][/b][/size]\r\n[url=http://www.filmweb.pl/serial/Lego+Hero+Factory%3A+Pierwsze+akcje+rekrut%C3%B3w-2010-606525][img]http://milliontorrent.pl/banerki/filmweb.png[/img][/url]\r\n\r\n=====================\r\nOPIS\r\n====================\r\nPrzygody robotów z popularnej serii zabawek Lego Hero Factory! To potężni Bohaterowie służący jednej sprawie - ratowaniu wszechświata przed złem. Rekruci stoczą walkę z najbardziej wrogimi stworami! Będą musieli zmierzyć się ze strzelającym kwasem Corroderem, niebezpiecznym Rotorem i szalonym snajperem Xplodem. Zobacz swoich Bohaterów w akcji! \r\n=====================\r\nOBSADA\r\n====================\r\n[font=Courier New]Grzegorz Pawlak.......... - Stormer  (polski dubbing) \r\nKrzysztof Banaszyk....... - Stringer  (polski dubbing) \r\nPaweł Ciołkosz......... - Furno  (polski dubbing) \r\nDariusz Odija............ - Bulk  (polski dubbing) \r\nZuzanna Galia............ - Breez  (polski dubbing) \r\nWojciech Paszkowski...... - Zib  (polski dubbing) \r\nStefan Knothe............ - Pan Makuro  (polski dubbing) \r\nGrzegorz Drojewski....... - Surge  (polski dubbing) \r\n[/font]\r\n\r\n=====================\r\nDANE TECHNICZNE\r\n=====================\r\n\r\nFormat                         : AVI\r\nFormat/Info                    : Audio Video Interleave\r\nFile size                      : 699 MiB\r\nDuration                       : 1h 23mn\r\nOverall bit rate mode          : Variable\r\nOverall bit rate               : 1 174 Kbps\r\nWriting application            : VirtualDubMod 1.5.10.2 (build 2540/release)\r\nWriting library                : VirtualDubMod build 2540/release\r\n\r\nVideo\r\nID                             : 0\r\nFormat                         : MPEG-4 Visual\r\nFormat profile                 : Advanced   \r\nFormat settings, BVOP          : Yes\r\nFormat settings, QPel          : No\r\nFormat settings, GMC           : No warppoints\r\nFormat settings, Matrix        : Default (H.263)\r\nCodec ID                       : XVID\r\nCodec ID/Hint                  : XviD\r\nDuration                       : 1h 23mn\r\nBit rate                       : 1 038 Kbps\r\nWidth                          : 640 pixels\r\nHeight                         : 352 pixels\r\nDisplay aspect ratio           : 16:9\r\nFrame rate                     : 25.000 fps\r\nColor space                    : YUV\r\nChroma subsampling             : 4:2:0\r\nBit depth                      : 8 bits\r\nScan type                      : Progressive\r\nCompression mode               : Lossy\r\nBits/(Pixel*Frame)             : 0.184\r\nStream size                    : 618 MiB (88%)\r\nWriting library                : XviD 1.2.1 (UTC 2008-12-04)\r\n\r\nAudio\r\nID                             : 1\r\nFormat                         : MPEG Audio\r\nFormat version                 : Version 1\r\nFormat profile                 : Layer 3\r\nMode                           : Joint stereo\r\nMode extension                 : MS Stereo\r\nCodec ID                       : 55\r\nCodec ID/Hint                  : MP3\r\nDuration                       : 1h 23mn\r\nBit rate mode                  : Variable\r\nBit rate                       : 128 Kbps\r\nChannel(s)                     : 2 channels\r\nSampling rate                  : 48.0 KHz\r\nCompression mode               : Lossy\r\nStream size                    : 73.4 MiB (10%)\r\nAlignment                      : Aligned on interleaves\r\nInterleave, duration           : 24 ms (0.60 video frame)\r\nInterleave, preload duration   : 149 ms\r\nWriting library                : LAME3.98r\r\nEncoding settings              : -m j -V 4 -q 3 -lowpass 17 --abr 128","torrent":{"xt":"urn:btih:55bdb4245dbe096a89ea9c6fa2ca870f533f769e","amp;dn":"Lego+Hero+Factory+%282010%29%5BBRRip%5D%5BXvid-torentup%5D%5BLektor+PL%5D","amp;tr":["udp%3A%2F%2Ftracker.leechers-paradise.org%3A6969","udp%3A%2F%2Fzer0day.ch%3A1337","udp%3A%2F%2Fopen.demonii.com%3A1337","udp%3A%2F%2Ftracker.coppersurfer.tk%3A6969","udp%3A%2F%2Fexodus.desync.com%3A6969"],"infoHash":"55bdb4245dbe096a89ea9c6fa2ca870f533f769e","infoHashBuffer":{"type":"Buffer","data":[85,189,180,36,93,190,9,106,137,234,156,111,162,202,135,15,83,63,118,158]},"announce":[],"urlList":[]}}